<?xml version="1.0" encoding="utf-8"?>
<!-- Generator: Adobe Illustrator 16.0.0, SVG Export Plug-In . SVG Version: 6.00 Build 0)  -->
<!DOCTYPE svg PUBLIC "-//W3C//DTD SVG 1.1//EN" "http://www.w3.org/Graphics/SVG/1.1/DTD/svg11.dtd">
<svg version="1.1" id="Layer_1" xmlns="http://www.w3.org/2000/svg" xmlns:xlink="http://www.w3.org/1999/xlink" x="0px" y="0px"
	 width="327px" height="140px" viewBox="0 0 327 140" enable-background="new 0 0 327 140" xml:space="preserve">
<g id="layer1">
	<path fill="#FFFFFF" d="M267.292,137.927c-3.3-2.8-6.3-10.2-7.3-18l-0.6-5.2l-3.3,5.2c-6.9,10.8-17.2,16.8-27.301,16.1
		c-5.3-0.399-6.399-0.899-9.899-4.3c-4.8-4.7-6.9-10.5-7.7-21c-0.8-11.5,1.5-22.899,6.9-33.5c4.899-9.6,8.8-13,14.8-13
		c8.2,0,15.899,9.2,16.7,20.2c0.399,5.4,0.199,6.7-1.7,9.1c-2.9,3.601-6.9,5.601-14.4,7.101l-6.1,1.3l-0.3,8.6
		c-0.4,12.801,2.899,17.801,9.6,14.301c4.8-2.5,12.5-11.9,17.5-21.4c5.1-9.7,4.7-7,7.8-49.2c0.7-9.899,1.7-16.3,2.601-17.8
		c2-3.3,5.899-4.5,10-3.1c4.399,1.399,5.699,4.1,4.899,9.8c-2.399,16.3-3.8,33.6-4.3,54.1c-0.5,23.2,0.1,30.101,2.7,28.5
		c1.7-1,4.5-7.3,9.399-20.399c3.4-9.301,4.301-12.801,3.601-14.2c-2.4-4.4,0.2-11.101,4.899-12.7c5.9-2.1,8.9,0.7,7.601,6.8l-0.7,3
		h6.7c5.1,0,6.7,0.3,7.2,1.601c0.3,0.899-0.101,6.3-1,11.899c-1.9,11.8-2.2,20.101-0.601,21c1.4,0.9,4.601-2.1,5.3-5.1
		c0.601-2,1.101-2.4,2.9-1.8c2.8,0.899,3.7,2.199,3.7,5.8c0,3.7-8.2,12-12.7,12.899c-10.2,2-15-5.899-13.9-23.199
		c0.301-5.301,0.9-11.101,1.2-12.801c0.4-2,0.2-3.3-0.399-3.3c-0.9,0-2.801,4.8-7.2,18.5c-4.8,15.2-12.101,24.9-19.601,26
		C270.893,140.327,269.792,140.026,267.292,137.927z M235.292,88.927c1.4-1,1.7-2.5,1.4-7.1c-0.2-3.601-0.8-6.101-1.5-6.4
		c-1.4-0.4-2.2,1.3-4.7,9.6c-1.5,5.2-1.5,5.2,0.8,5.2C232.492,90.227,234.292,89.627,235.292,88.927z"/>
	<path fill="#FFFFFF" d="M113.393,137.227c-3.3-1.3-6.5-5.399-8.9-11.399l-2.3-5.7l-2.7,3.5c-4.7,6.2-9.1,8.899-14.399,8.8
		c-5.5,0-8.2-2.7-10.2-9.9c-1.2-4.199-0.9-18.3,0.6-26.199c0.5-2.5,0.3-3.2-0.6-2.9c-0.7,0.2-2.9,5.2-5,11
		c-5.601,15.9-12.7,27.5-18.7,30.7c-2.7,1.399-7.8,1.399-10.4,0.1c-4.699-2.6-7.899-14.5-7.899-29.7v-8.199l-8.4,3
		c-34.2,11.899-32.2-4.5,3.601-29c9.399-6.4,8.8-5,11.1-25.4c1.6-13.5,2.2-14.8,7.5-16.2c2.9-0.7,8.9,2.101,9.7,4.601
		c0.3,1-0.101,5.699-1.101,10.399c-0.899,4.7-1.399,8.8-1.199,9.101c0.3,0.3,6.699-2.9,14.199-7.101c7.5-4.1,14.301-7.5,15.2-7.5
		c1.8,0,10.4,4.9,10.4,5.8c0,0.4-2.8,2.2-6.3,4.101c-23.4,12.7-35.101,19.1-35.4,19.5c-0.6,0.6-1.1,4.3-2.8,19.8
		c-2.5,24.8-1.8,36.9,2.1,33.7c2-1.7,4.5-6.601,10-20.101c3.7-9,4.4-11.6,3.5-13c-3.1-5,1.8-13.1,7.8-13.1
		c4.101,0,5.301,1.7,4.601,6.6l-0.5,3.7h6.5c5.2,0,6.7,0.3,7.2,1.7c0.399,0.9-0.101,6.2-1,11.7c-2.601,15.2-2.101,24.2,1.3,22.1
		c1.8-1.1,7.399-13.899,11.5-26.1c5.8-17.3,11.399-23.4,21.5-23.4c5.7,0,8.6,1.2,11.3,4.7c1.5,1.9,2.2,2.1,3.9,1.2
		c2.699-1.5,8.1-0.3,10.399,2.2c1.7,1.8,1.7,2.8,0.601,12.699c-1.9,16.801-1.4,26.801,1.199,25.9c1.601-0.5,7.2-12.1,9.601-19.8
		c1.1-3.601,2-9.2,2-12.3c0-3.101,0.7-7,1.5-8.5c2.2-4.4,11.1-6.7,14.7-3.801c1.399,1,1.5,2.101,0.5,7.601
		c-2,12.2,2,33.1,6.399,33.1c2.3,0,6.101-11.5,7.9-23.5c0.6-4.399,1.3-9.5,1.6-11.2c0.5-3.399,3.101-4.899,7.101-4.1
		c4.199,0.8,0.199,27.4-5.9,38.8c-3.8,7.3-4.7,8.4-8.8,10.9c-7.5,4.5-15.601,1.5-20-7.601c-1.4-2.899-2.7-5.199-3-5.3
		c-0.3,0-1.3,2-2.3,4.4c-2.601,6.2-9.7,12.6-13.9,12.6c-3.7,0-8.9-2.399-10.1-4.6c-1.301-2.3-2.301-1.7-4.301,2.8
		c-2.6,5.9-8.399,9.8-14.3,9.7C117.492,138.127,114.492,137.727,113.393,137.227z M125.292,126.927c5.5-5.5,9.801-24.3,7.801-34.8
		c-0.601-3.3-1.601-6.7-2.301-7.5c-3.399-4.101-9.6,0.8-12.5,9.899c-3.6,11.7-2.699,31.2,1.5,33.7
		C122.192,129.627,122.792,129.427,125.292,126.927z M23.692,95.827c5.2-1.4,9.5-2.601,9.7-2.801c0.1-0.1,0.6-3.6,1-7.699l0.7-7.4
		l-4.801,2.8c-8.899,5.101-17.899,11.3-20.8,14.4l-3,3.1h4C12.593,98.227,18.593,97.127,23.692,95.827z"/>
	<path fill="#FFFFFF" d="M96.393,39.627c-1.601-0.9-4.7-2.8-6.8-4.2l-3.801-2.5l3-2c2.9-1.8,3.4-1.8,7.7-0.3l4.601,1.5l3.899-3.601
		c2.101-2,3.7-3.899,3.4-4.199c-0.2-0.4-3.8-1.801-7.9-3.101c-4.2-1.3-7.6-2.8-7.6-3.3s0.899-2.2,2.1-3.8l2-2.9h15.601h15.5
		l3.699-2.899c8.7-6.9,18.4-10.101,19.7-6.601c1.3,3.3-13.6,18.7-26.1,27c-10.4,6.8-21.3,12.5-23.9,12.5
		C100.292,41.127,98.093,40.427,96.393,39.627z"/>
</g>
</svg>
